# xmcd CD database file
#
# Track frame offsets:
#	150
#	11846
#	20224
#	31534
#	42796
#	56328
#	68919
#	81563
#	92586
#	106279
#	118736
#	130351
#	142847
#	151560
#	164120
#	175614
#	186379
#	196412
#	205712
#	217118
#
# Disc length: 3047 seconds
#
# Revision: 0
# Processed by: cddbd v1.5.2PL0 Copyright (c) Steve Scherf et al.
# Submitted via: CDex 1.70beta2
#
DISCID=160be514
DTITLE=CNO - Country Number Ones - D2
DYEAR=1900
DGENRE=Country
TTITLE0=Oh Lonesome Me - Don Gibson
TTITLE1=Guess Things Happen That Way - Johnny Cash
TTITLE2=White Sport Coat(and A Pink Carnation) - Marty Robbins
TTITLE3=Let Me Be The One - Hank Locklin
TTITLE4=City Lights - Ray Price
TTITLE5=The Golden Rocket - Hank Snow
TTITLE6=Chattanoogie Shoe Shine Boy - Red Foley
TTITLE7=No Help Wanted - The Carlisles
TTITLE8=Slow Poke - Pee Wee King
TTITLE9=Don't Let the Stars Get In your Eyes - Skeets McDonald
TTITLE10=Kaw-Liga - Hank Williams
TTITLE11=I Love You A Thousand Ways - Lefty Frizzell
TTITLE12=Blue Blue Day - Don Gibson
TTITLE13=Bimbo - Jim Reeves
TTITLE14=Why Baby Why - Red Sovine and Webb Price 
TTITLE15=Gone - Ferlin Husky
TTITLE16=Ballad of A Teenaged Queen - Johnny Cash
TTITLE17=Honky Tonk Song - Webb Pierce
TTITLE18=Hey Joe! - Carl Smith
TTITLE19=The Story of My Life - Marty Robbins
EXTD=
EXTT0=
EXTT1=
EXTT2=
EXTT3=
EXTT4=
EXTT5=
EXTT6=
EXTT7=
EXTT8=
EXTT9=
EXTT10=
EXTT11=
EXTT12=
EXTT13=
EXTT14=
EXTT15=
EXTT16=
EXTT17=
EXTT18=
EXTT19=
PLAYORDER=
